<mxfile host="app.diagrams.net" modified="2021-08-18T15:03:06.975Z" agent="5.0 (Macintosh; Intel Mac OS X 10_15_7) AppleWebKit/537.36 (KHTML, like Gecko) Chrome/91.0.4472.114 Safari/537.36" etag="BIxChoCBuFC3ulTKlGPN" version="14.9.7" type="github">
  <diagram id="kgpKYQtTHZ0yAKxKKP6v" name="Page-1">
    <mxGraphModel dx="1636" dy="378" grid="1" gridSize="10" guides="1" tooltips="1" connect="1" arrows="1" fold="1" page="1" pageScale="1" pageWidth="850" pageHeight="1100" math="0" shadow="0">
      <root>
        <mxCell id="0" />
        <mxCell id="1" parent="0" />
        <mxCell id="3nuBFxr9cyL0pnOWT2aG-1" value="PaymentAccountSyncService" style="shape=umlLifeline;perimeter=lifelinePerimeter;container=1;collapsible=0;recursiveResize=0;rounded=0;shadow=0;strokeWidth=1;fillColor=#ffe6cc;strokeColor=#d79b00;" parent="1" vertex="1">
          <mxGeometry x="50" y="60" width="170" height="550" as="geometry" />
        </mxCell>
        <mxCell id="3nuBFxr9cyL0pnOWT2aG-2" value="" style="points=[];perimeter=orthogonalPerimeter;rounded=0;shadow=0;strokeWidth=1;fillColor=#fff2cc;strokeColor=#d6b656;" parent="3nuBFxr9cyL0pnOWT2aG-1" vertex="1">
          <mxGeometry x="80" y="90" width="10" height="460" as="geometry" />
        </mxCell>
        <mxCell id="3nuBFxr9cyL0pnOWT2aG-3" value="1.ValidateAccountSyncProcess" style="verticalAlign=bottom;startArrow=oval;endArrow=block;startSize=8;shadow=0;strokeWidth=1;" parent="3nuBFxr9cyL0pnOWT2aG-1" target="3nuBFxr9cyL0pnOWT2aG-2" edge="1">
          <mxGeometry relative="1" as="geometry">
            <mxPoint x="-90" y="90" as="sourcePoint" />
          </mxGeometry>
        </mxCell>
        <mxCell id="3nuBFxr9cyL0pnOWT2aG-5" value="CustomerAccountService" style="shape=umlLifeline;perimeter=lifelinePerimeter;container=1;collapsible=0;recursiveResize=0;rounded=0;shadow=0;strokeWidth=1;fillColor=#ffe6cc;strokeColor=#d79b00;" parent="1" vertex="1">
          <mxGeometry x="270" y="60" width="140" height="560" as="geometry" />
        </mxCell>
        <mxCell id="3nuBFxr9cyL0pnOWT2aG-6" value="" style="points=[];perimeter=orthogonalPerimeter;rounded=0;shadow=0;strokeWidth=1;" parent="3nuBFxr9cyL0pnOWT2aG-5" vertex="1">
          <mxGeometry x="60" y="90" width="10" height="30" as="geometry" />
        </mxCell>
        <mxCell id="3nuBFxr9cyL0pnOWT2aG-8" value="1.1 getAccountRoleStatus" style="verticalAlign=bottom;endArrow=block;entryX=-0.2;entryY=0.367;shadow=0;strokeWidth=1;entryDx=0;entryDy=0;entryPerimeter=0;" parent="1" source="3nuBFxr9cyL0pnOWT2aG-2" target="3nuBFxr9cyL0pnOWT2aG-6" edge="1">
          <mxGeometry relative="1" as="geometry">
            <mxPoint x="275" y="160" as="sourcePoint" />
            <Array as="points">
              <mxPoint x="170" y="160" />
            </Array>
          </mxGeometry>
        </mxCell>
        <mxCell id="XDlzX5ACy_mruo7GVJDr-2" value="&lt;div&gt;&lt;font style=&quot;font-size: 12px&quot;&gt;&lt;span style=&quot;white-space: pre&quot;&gt;	&lt;span style=&quot;white-space: pre&quot;&gt;	&lt;/span&gt;&lt;span style=&quot;white-space: pre&quot;&gt;	&lt;/span&gt;&lt;/span&gt;GET /customer-accounts/&lt;span&gt;{customerAccountUUID}&lt;/span&gt;&lt;/font&gt;&lt;/div&gt;&lt;div&gt;&lt;br&gt;&lt;/div&gt;" style="text;html=1;align=center;verticalAlign=middle;resizable=0;points=[];autosize=1;strokeColor=none;" vertex="1" parent="1">
          <mxGeometry x="70" y="120" width="360" height="30" as="geometry" />
        </mxCell>
        <mxCell id="XDlzX5ACy_mruo7GVJDr-4" value="1.2 getIdentityProfileId" style="html=1;verticalAlign=bottom;endArrow=block;" edge="1" target="XDlzX5ACy_mruo7GVJDr-8" parent="1">
          <mxGeometry x="-0.0164" y="-10" relative="1" as="geometry">
            <mxPoint x="140" y="220" as="sourcePoint" />
            <mxPoint x="415" y="220" as="targetPoint" />
            <mxPoint as="offset" />
          </mxGeometry>
        </mxCell>
        <mxCell id="XDlzX5ACy_mruo7GVJDr-5" value="return" style="html=1;verticalAlign=bottom;endArrow=open;dashed=1;endSize=8;entryX=1.2;entryY=0.248;entryDx=0;entryDy=0;entryPerimeter=0;exitX=0.3;exitY=1.025;exitDx=0;exitDy=0;exitPerimeter=0;" edge="1" source="XDlzX5ACy_mruo7GVJDr-8" parent="1" target="3nuBFxr9cyL0pnOWT2aG-2">
          <mxGeometry relative="1" as="geometry">
            <mxPoint x="343" y="280" as="targetPoint" />
            <mxPoint x="501" y="256" as="sourcePoint" />
          </mxGeometry>
        </mxCell>
        <mxCell id="XDlzX5ACy_mruo7GVJDr-6" value="GET /individual-identifiers/{individualResourceId}" style="text;html=1;align=center;verticalAlign=middle;resizable=0;points=[];autosize=1;strokeColor=none;" vertex="1" parent="1">
          <mxGeometry x="250" y="190" width="270" height="20" as="geometry" />
        </mxCell>
        <mxCell id="XDlzX5ACy_mruo7GVJDr-7" value="InvididualIdentifierService" style="shape=umlLifeline;perimeter=lifelinePerimeter;container=1;collapsible=0;recursiveResize=0;rounded=0;shadow=0;strokeWidth=1;fillColor=#ffe6cc;strokeColor=#d79b00;" vertex="1" parent="1">
          <mxGeometry x="440" y="60" width="140" height="480" as="geometry" />
        </mxCell>
        <mxCell id="XDlzX5ACy_mruo7GVJDr-8" value="" style="points=[];perimeter=orthogonalPerimeter;rounded=0;shadow=0;strokeWidth=1;" vertex="1" parent="XDlzX5ACy_mruo7GVJDr-7">
          <mxGeometry x="60" y="160" width="10" height="40" as="geometry" />
        </mxCell>
        <mxCell id="XDlzX5ACy_mruo7GVJDr-11" value="return" style="html=1;verticalAlign=bottom;endArrow=open;dashed=1;endSize=8;exitX=-0.5;exitY=0.967;exitDx=0;exitDy=0;exitPerimeter=0;entryX=1.3;entryY=0.067;entryDx=0;entryDy=0;entryPerimeter=0;" edge="1" parent="1" source="3nuBFxr9cyL0pnOWT2aG-6" target="3nuBFxr9cyL0pnOWT2aG-2">
          <mxGeometry relative="1" as="geometry">
            <mxPoint x="210" y="180" as="sourcePoint" />
            <mxPoint x="150" y="180" as="targetPoint" />
          </mxGeometry>
        </mxCell>
        <mxCell id="XDlzX5ACy_mruo7GVJDr-12" value="PaymentAgreementServie" style="shape=umlLifeline;perimeter=lifelinePerimeter;container=1;collapsible=0;recursiveResize=0;rounded=0;shadow=0;strokeWidth=1;fillColor=#ffe6cc;strokeColor=#d79b00;" vertex="1" parent="1">
          <mxGeometry x="620" y="60" width="170" height="480" as="geometry" />
        </mxCell>
        <mxCell id="XDlzX5ACy_mruo7GVJDr-13" value="" style="points=[];perimeter=orthogonalPerimeter;rounded=0;shadow=0;strokeWidth=1;" vertex="1" parent="XDlzX5ACy_mruo7GVJDr-12">
          <mxGeometry x="65" y="235" width="10" height="45" as="geometry" />
        </mxCell>
        <mxCell id="XDlzX5ACy_mruo7GVJDr-25" value="GET /application/payment-vault/v2/accounts?entityType=IDENTITY_PROFILE_ID&amp;amp;entityId=?" style="text;html=1;align=center;verticalAlign=middle;resizable=0;points=[];autosize=1;strokeColor=none;" vertex="1" parent="XDlzX5ACy_mruo7GVJDr-12">
          <mxGeometry x="-230" y="300" width="510" height="20" as="geometry" />
        </mxCell>
        <mxCell id="XDlzX5ACy_mruo7GVJDr-28" value="&lt;div&gt;GET application/payment-vault/v2/funding-association?customerAccountId=?&amp;amp;epvaId=?&lt;/div&gt;&lt;div&gt;&lt;br&gt;&lt;/div&gt;" style="text;html=1;align=center;verticalAlign=middle;resizable=0;points=[];autosize=1;strokeColor=none;" vertex="1" parent="XDlzX5ACy_mruo7GVJDr-12">
          <mxGeometry x="-230" y="350" width="480" height="30" as="geometry" />
        </mxCell>
        <mxCell id="XDlzX5ACy_mruo7GVJDr-14" value="PaymentVaultService" style="shape=umlLifeline;perimeter=lifelinePerimeter;container=1;collapsible=0;recursiveResize=0;rounded=0;shadow=0;strokeWidth=1;fillColor=#ffe6cc;strokeColor=#d79b00;" vertex="1" parent="1">
          <mxGeometry x="830" y="60" width="140" height="550" as="geometry" />
        </mxCell>
        <mxCell id="XDlzX5ACy_mruo7GVJDr-16" value="" style="html=1;verticalAlign=bottom;endArrow=block;" edge="1" parent="1" target="XDlzX5ACy_mruo7GVJDr-13">
          <mxGeometry x="-0.0164" y="-10" relative="1" as="geometry">
            <mxPoint x="140" y="300" as="sourcePoint" />
            <mxPoint x="500" y="300" as="targetPoint" />
            <mxPoint as="offset" />
          </mxGeometry>
        </mxCell>
        <mxCell id="XDlzX5ACy_mruo7GVJDr-17" value="1.3 getFundingAgreementDetails" style="edgeLabel;html=1;align=center;verticalAlign=middle;resizable=0;points=[];" vertex="1" connectable="0" parent="XDlzX5ACy_mruo7GVJDr-16">
          <mxGeometry x="0.4365" y="-1" relative="1" as="geometry">
            <mxPoint as="offset" />
          </mxGeometry>
        </mxCell>
        <mxCell id="XDlzX5ACy_mruo7GVJDr-19" value="GET application/payment-agreement/v1/agreement?customerAccountId=?" style="text;html=1;align=center;verticalAlign=middle;resizable=0;points=[];autosize=1;strokeColor=none;" vertex="1" parent="1">
          <mxGeometry x="370" y="270" width="410" height="20" as="geometry" />
        </mxCell>
        <mxCell id="XDlzX5ACy_mruo7GVJDr-20" value="return" style="html=1;verticalAlign=bottom;endArrow=open;dashed=1;endSize=8;" edge="1" parent="1">
          <mxGeometry relative="1" as="geometry">
            <mxPoint x="690" y="340" as="sourcePoint" />
            <mxPoint x="141" y="340" as="targetPoint" />
          </mxGeometry>
        </mxCell>
        <mxCell id="XDlzX5ACy_mruo7GVJDr-15" value="" style="points=[];perimeter=orthogonalPerimeter;rounded=0;shadow=0;strokeWidth=1;" vertex="1" parent="1">
          <mxGeometry x="890" y="390" width="10" height="50" as="geometry" />
        </mxCell>
        <mxCell id="XDlzX5ACy_mruo7GVJDr-23" value="" style="html=1;verticalAlign=bottom;endArrow=block;exitX=1.2;exitY=0.543;exitDx=0;exitDy=0;exitPerimeter=0;entryX=-0.4;entryY=0.16;entryDx=0;entryDy=0;entryPerimeter=0;" edge="1" parent="1" source="3nuBFxr9cyL0pnOWT2aG-2" target="XDlzX5ACy_mruo7GVJDr-15">
          <mxGeometry x="-0.0164" y="-10" relative="1" as="geometry">
            <mxPoint x="150" y="380" as="sourcePoint" />
            <mxPoint x="880" y="398" as="targetPoint" />
            <mxPoint as="offset" />
          </mxGeometry>
        </mxCell>
        <mxCell id="XDlzX5ACy_mruo7GVJDr-24" value="1.4 getVaultAccountDetails" style="edgeLabel;html=1;align=center;verticalAlign=middle;resizable=0;points=[];" vertex="1" connectable="0" parent="XDlzX5ACy_mruo7GVJDr-23">
          <mxGeometry x="0.4365" y="-1" relative="1" as="geometry">
            <mxPoint as="offset" />
          </mxGeometry>
        </mxCell>
        <mxCell id="XDlzX5ACy_mruo7GVJDr-26" value="return" style="html=1;verticalAlign=bottom;endArrow=open;dashed=1;endSize=8;" edge="1" parent="1" source="XDlzX5ACy_mruo7GVJDr-14">
          <mxGeometry relative="1" as="geometry">
            <mxPoint x="689" y="420" as="sourcePoint" />
            <mxPoint x="140" y="440" as="targetPoint" />
            <Array as="points">
              <mxPoint x="590" y="440" />
            </Array>
          </mxGeometry>
        </mxCell>
        <mxCell id="XDlzX5ACy_mruo7GVJDr-27" value="&lt;span style=&quot;color: rgba(0 , 0 , 0 , 0) ; font-family: monospace ; font-size: 0px&quot;&gt;%3CmxGraphModel%3E%3Croot%3E%3CmxCell%20id%3D%220%22%2F%3E%3CmxCell%20id%3D%221%22%20parent%3D%220%22%2F%3E%3CmxCell%20id%3D%222%22%20value%3D%22GET%20%2Fapplication%2Fpayment-vault%2Fv2%2Faccounts%3FentityType%3DIDENTITY_PROFILE_ID%26amp%3Bamp%3BentityId%3D%3F%22%20style%3D%22text%3Bhtml%3D1%3Balign%3Dcenter%3BverticalAlign%3Dmiddle%3Bresizable%3D0%3Bpoints%3D%5B%5D%3Bautosize%3D1%3BstrokeColor%3Dnone%3B%22%20vertex%3D%221%22%20parent%3D%221%22%3E%3CmxGeometry%20x%3D%22410%22%20y%3D%22350%22%20width%3D%22510%22%20height%3D%2220%22%20as%3D%22geometry%22%2F%3E%3C%2FmxCell%3E%3C%2Froot%3E%3C%2FmxGraphModel%3E&lt;/span&gt;" style="text;html=1;align=center;verticalAlign=middle;resizable=0;points=[];autosize=1;strokeColor=none;" vertex="1" parent="1">
          <mxGeometry x="570" y="390" width="20" height="20" as="geometry" />
        </mxCell>
        <mxCell id="XDlzX5ACy_mruo7GVJDr-29" value="EventService" style="shape=umlLifeline;perimeter=lifelinePerimeter;container=1;collapsible=0;recursiveResize=0;rounded=0;shadow=0;strokeWidth=1;fillColor=#ffe6cc;strokeColor=#d79b00;" vertex="1" parent="1">
          <mxGeometry x="1000" y="60" width="140" height="550" as="geometry" />
        </mxCell>
        <mxCell id="XDlzX5ACy_mruo7GVJDr-30" value="" style="html=1;verticalAlign=bottom;endArrow=block;entryX=0.488;entryY=0.885;entryDx=0;entryDy=0;entryPerimeter=0;" edge="1" parent="1" source="3nuBFxr9cyL0pnOWT2aG-1" target="XDlzX5ACy_mruo7GVJDr-12">
          <mxGeometry x="-0.0164" y="-10" relative="1" as="geometry">
            <mxPoint x="115.25" y="480" as="sourcePoint" />
            <mxPoint x="904.75" y="480" as="targetPoint" />
            <mxPoint as="offset" />
          </mxGeometry>
        </mxCell>
        <mxCell id="XDlzX5ACy_mruo7GVJDr-31" value="1.5 updateAccountSyncProcess" style="edgeLabel;html=1;align=center;verticalAlign=middle;resizable=0;points=[];" vertex="1" connectable="0" parent="XDlzX5ACy_mruo7GVJDr-30">
          <mxGeometry x="0.4365" y="-1" relative="1" as="geometry">
            <mxPoint x="48" y="-6" as="offset" />
          </mxGeometry>
        </mxCell>
        <mxCell id="XDlzX5ACy_mruo7GVJDr-34" value="return" style="html=1;verticalAlign=bottom;endArrow=open;dashed=1;endSize=8;exitX=0.481;exitY=0.956;exitDx=0;exitDy=0;exitPerimeter=0;" edge="1" parent="1" source="XDlzX5ACy_mruo7GVJDr-12">
          <mxGeometry relative="1" as="geometry">
            <mxPoint x="690" y="520" as="sourcePoint" />
            <mxPoint x="140" y="520" as="targetPoint" />
            <Array as="points">
              <mxPoint x="580" y="520" />
            </Array>
          </mxGeometry>
        </mxCell>
        <mxCell id="XDlzX5ACy_mruo7GVJDr-35" value="Compare Payment Vault Account with &lt;br&gt;Payment Agreemnt FA , Based on call update" style="text;html=1;align=center;verticalAlign=middle;resizable=0;points=[];autosize=1;strokeColor=none;" vertex="1" parent="1">
          <mxGeometry x="140" y="450" width="260" height="30" as="geometry" />
        </mxCell>
        <mxCell id="XDlzX5ACy_mruo7GVJDr-36" value="" style="points=[];perimeter=orthogonalPerimeter;rounded=0;shadow=0;strokeWidth=1;" vertex="1" parent="1">
          <mxGeometry x="700" y="480" width="10" height="40" as="geometry" />
        </mxCell>
        <mxCell id="XDlzX5ACy_mruo7GVJDr-37" value="" style="html=1;verticalAlign=bottom;endArrow=block;entryX=0.486;entryY=0.891;entryDx=0;entryDy=0;entryPerimeter=0;" edge="1" parent="1" target="XDlzX5ACy_mruo7GVJDr-29">
          <mxGeometry x="-0.0164" y="-10" relative="1" as="geometry">
            <mxPoint x="140" y="548" as="sourcePoint" />
            <mxPoint x="874" y="548" as="targetPoint" />
            <mxPoint as="offset" />
          </mxGeometry>
        </mxCell>
        <mxCell id="XDlzX5ACy_mruo7GVJDr-38" value="1.6 sendUpdatedEvents" style="edgeLabel;html=1;align=center;verticalAlign=middle;resizable=0;points=[];" vertex="1" connectable="0" parent="XDlzX5ACy_mruo7GVJDr-37">
          <mxGeometry x="0.4365" y="-1" relative="1" as="geometry">
            <mxPoint x="93" y="1" as="offset" />
          </mxGeometry>
        </mxCell>
        <mxCell id="XDlzX5ACy_mruo7GVJDr-40" value="" style="points=[];perimeter=orthogonalPerimeter;rounded=0;shadow=0;strokeWidth=1;" vertex="1" parent="1">
          <mxGeometry x="1065" y="550" width="10" height="50" as="geometry" />
        </mxCell>
        <mxCell id="XDlzX5ACy_mruo7GVJDr-41" value="return" style="html=1;verticalAlign=bottom;endArrow=open;dashed=1;endSize=8;entryX=1.1;entryY=0.974;entryDx=0;entryDy=0;entryPerimeter=0;" edge="1" parent="1" target="3nuBFxr9cyL0pnOWT2aG-2">
          <mxGeometry relative="1" as="geometry">
            <mxPoint x="1060" y="600" as="sourcePoint" />
            <mxPoint x="980" y="600" as="targetPoint" />
          </mxGeometry>
        </mxCell>
        <mxCell id="XDlzX5ACy_mruo7GVJDr-42" value="Actor" style="shape=umlLifeline;perimeter=lifelinePerimeter;container=1;collapsible=0;recursiveResize=0;rounded=0;shadow=0;strokeWidth=1;fillColor=#ffe6cc;strokeColor=#d79b00;" vertex="1" parent="1">
          <mxGeometry x="-100" y="60" width="110" height="560" as="geometry" />
        </mxCell>
        <mxCell id="XDlzX5ACy_mruo7GVJDr-45" value="return" style="html=1;verticalAlign=bottom;endArrow=open;dashed=1;endSize=8;entryX=0.527;entryY=0.984;entryDx=0;entryDy=0;entryPerimeter=0;" edge="1" parent="1" source="3nuBFxr9cyL0pnOWT2aG-1" target="XDlzX5ACy_mruo7GVJDr-42">
          <mxGeometry relative="1" as="geometry">
            <mxPoint x="70" y="610" as="sourcePoint" />
            <mxPoint x="-10" y="610" as="targetPoint" />
          </mxGeometry>
        </mxCell>
      </root>
    </mxGraphModel>
  </diagram>
</mxfile>
